<svg width="157" height="36" viewBox="0 0 157 36" fill="none" xmlns="http://www.w3.org/2000/svg">
<path d="M19.9328 22.1899C19.7546 22.5867 19.5389 22.9317 19.2859 23.225C19.0328 23.5183 18.751 23.7599 18.4405 23.9496C18.13 24.1394 17.7935 24.2803 17.4312 24.3723C17.0689 24.4643 16.6923 24.5104 16.3012 24.5104C16.1804 24.5104 16.0798 24.5147 15.9993 24.5233C15.9188 24.5319 15.8527 24.5405 15.8009 24.5492C15.7491 24.5578 15.706 24.565 15.6715 24.5707C15.637 24.5765 15.6025 24.5794 15.568 24.5794C15.5162 24.5794 15.4731 24.5722 15.4386 24.5578C15.4041 24.5434 15.3868 24.519 15.3868 24.4845C15.3868 24.4385 15.4113 24.4111 15.4601 24.4025C15.5091 24.3939 15.5479 24.3896 15.5766 24.3896C15.6571 24.3896 15.7347 24.3953 15.8095 24.4068C15.8843 24.4183 15.9619 24.4298 16.0424 24.4413C16.3875 24.2746 16.6807 24.0345 16.9223 23.721C17.1638 23.4076 17.3795 23.0568 17.5693 22.6687C17.759 22.2805 17.9359 21.8736 18.0998 21.4481C18.2637 21.0225 18.4448 20.6185 18.6432 20.2361C18.8416 19.8536 19.0702 19.5086 19.329 19.2009C19.5878 18.8932 19.9041 18.6618 20.2779 18.5065L20.2607 18.4892C20.0134 18.5295 19.7488 18.6388 19.467 18.8171C19.1852 18.9953 18.902 19.2182 18.6173 19.4856C18.3327 19.753 18.0509 20.052 17.772 20.3827C17.4931 20.7134 17.2271 21.0541 16.974 21.4049C16.7785 21.6809 16.5787 21.9628 16.3745 22.2503C16.1704 22.5378 15.959 22.8182 15.7405 23.0913C15.522 23.3645 15.289 23.6276 15.0418 23.8806C14.7945 24.1337 14.5242 24.3666 14.2309 24.5794L14.1705 24.4931C14.3718 24.1768 14.5343 23.8375 14.6579 23.4752C14.7815 23.1129 14.8966 22.7449 15.0029 22.371C15.1094 21.9972 15.2172 21.6263 15.3264 21.2583C15.4357 20.8902 15.5751 20.5394 15.7448 20.2058C15.9145 19.8723 16.1258 19.5646 16.3789 19.2829C16.6319 19.0011 16.9511 18.7624 17.3363 18.5669L17.3191 18.5496C16.9395 18.6761 16.5916 18.8587 16.2753 19.0974C15.959 19.336 15.6657 19.6064 15.3955 19.9082C15.1252 20.2102 14.875 20.5351 14.645 20.883C14.4149 21.2309 14.1936 21.5774 13.9807 21.9225C13.768 22.2676 13.5638 22.6011 13.3683 22.9231C13.1728 23.2452 12.9715 23.5284 12.7645 23.7728C12.5574 24.0172 12.336 24.2127 12.1002 24.3594C11.8644 24.506 11.5999 24.5794 11.3066 24.5794C11.2319 24.5794 11.1585 24.5736 11.0867 24.5621C11.0148 24.5506 10.9486 24.5276 10.8882 24.4931C10.8279 24.4586 10.779 24.4126 10.7416 24.3551C10.7042 24.2975 10.6855 24.2228 10.6855 24.1308C10.6855 24.0445 10.7143 23.9726 10.7718 23.9151C10.8293 23.8576 10.9012 23.8289 10.9875 23.8289C11.0622 23.8289 11.1226 23.8576 11.1686 23.9151C11.2146 23.9726 11.2376 24.0388 11.2376 24.1135C11.2376 24.1595 11.2276 24.2084 11.2074 24.2602C11.1873 24.3119 11.1542 24.3436 11.1082 24.3551C11.114 24.3896 11.1485 24.4183 11.2117 24.4413C11.275 24.4643 11.3354 24.4758 11.3929 24.4758C11.6459 24.4758 11.8817 24.3968 12.1002 24.2386C12.3188 24.0805 12.533 23.8706 12.7429 23.6089C12.9528 23.3473 13.1612 23.0482 13.3683 22.7118C13.5753 22.3754 13.791 22.026 14.0153 21.6637C14.2798 21.2439 14.5443 20.85 14.8089 20.4819C15.0734 20.1139 15.3581 19.7846 15.6629 19.4942C15.9677 19.2038 16.3027 18.958 16.6678 18.7567C17.033 18.5554 17.4485 18.4087 17.9143 18.3167L17.923 18.3944C17.5664 18.5036 17.2702 18.6776 17.0344 18.9162C16.7987 19.1549 16.5959 19.4353 16.4263 19.7573C16.2566 20.0793 16.11 20.4301 15.9864 20.8097C15.8627 21.1893 15.7362 21.5731 15.6068 21.9613C15.4774 22.3495 15.3351 22.7305 15.1798 23.1043C15.0245 23.4781 14.829 23.8231 14.5932 24.1394L14.6105 24.1567C14.8233 23.9726 15.0375 23.7556 15.2531 23.5054C15.4688 23.2552 15.6801 22.9936 15.8871 22.7204C16.0942 22.4472 16.294 22.1741 16.4867 21.9009C16.6793 21.6277 16.859 21.3761 17.0258 21.1461C17.4744 20.5308 17.8856 20.0362 18.2594 19.6624C18.6332 19.2886 18.9782 18.9996 19.2945 18.7955C19.6108 18.5913 19.8998 18.4547 20.1614 18.3858C20.4231 18.3167 20.6661 18.2822 20.8904 18.2822C20.9766 18.2822 21.06 18.2951 21.1405 18.321C21.221 18.3469 21.2613 18.3886 21.2613 18.4461C21.2613 18.4921 21.244 18.5209 21.2095 18.5324C21.175 18.5439 21.1347 18.5496 21.0887 18.5496C21.0082 18.5496 20.9234 18.5396 20.8343 18.5195C20.7451 18.4993 20.6574 18.4892 20.5712 18.4892C20.4389 18.4892 20.3052 18.5467 20.1701 18.6618C20.0349 18.7768 19.8998 18.9263 19.7646 19.1104C19.6295 19.2944 19.4987 19.4999 19.3722 19.7271C19.2456 19.9543 19.1292 20.1786 19.0228 20.4C18.9164 20.6214 18.8244 20.827 18.7467 21.0167C18.6691 21.2065 18.6073 21.356 18.5613 21.4653C18.4693 21.7126 18.3629 21.9757 18.2421 22.2546C18.1213 22.5335 17.9718 22.8067 17.7935 23.0741C17.6153 23.3415 17.3982 23.5931 17.1423 23.8289C16.8864 24.0647 16.5744 24.2631 16.2063 24.4241V24.4413C17.0804 24.4413 17.8209 24.2516 18.4275 23.872C19.0343 23.4925 19.513 22.926 19.8638 22.1727L19.9328 22.1899Z" fill="#8C3DED" stroke="#8C3DED" stroke-width="0.321712" stroke-miterlimit="2" stroke-linejoin="round"/>
<path d="M27.2301 3L55.7947 3.02597M55.7947 3.02597L30.8313 13.0179L45.8178 33C45.8178 33 60.8156 15.9631 60.7756 16.0174C60.7355 16.0718 55.7947 3.02597 55.7947 3.02597ZM34.5456 3L5.98092 3.02597M5.98092 3.02597L30.9444 13.0179L15.958 33C15.958 33 0.960034 15.9631 1.00008 16.0174C1.04013 16.0718 5.98092 3.02597 5.98092 3.02597ZM22.28 24.9365L39.5597 24.9768" stroke="white" stroke-miterlimit="1.5" stroke-linecap="round" stroke-linejoin="round"/>
<path d="M79.0869 20.0299H77.3269L71.4672 7.83412L72.6267 7.79271V21.5H70.3076V6.69529H73.165L78.7763 18.4562H77.6789L83.2902 6.69529H86.0855V21.5H83.7664V7.79271L84.926 7.83412L79.0869 20.0299ZM99.692 17.9386H91.1612V15.9094H99.692V17.9386ZM102.632 21.5H100.106L95.0332 8.31035H95.82L90.7471 21.5H88.3038L94.1636 6.69529H96.7725L102.632 21.5ZM107.247 21.5H104.866V6.69529H110.787C111.809 6.69529 112.706 6.88165 113.479 7.25435C114.252 7.61325 114.853 8.124 115.281 8.78659C115.722 9.43537 115.943 10.2015 115.943 11.0849C115.943 11.9546 115.722 12.7207 115.281 13.3833C114.853 14.0459 114.252 14.5635 113.479 14.9362C112.706 15.2951 111.809 15.4746 110.787 15.4746H107.04V13.4454H110.787C111.629 13.4454 112.292 13.2384 112.775 12.8242C113.272 12.3963 113.521 11.8165 113.521 11.0849C113.521 10.3533 113.272 9.78047 112.775 9.36635C112.292 8.93843 111.629 8.72447 110.787 8.72447H107.247V21.5ZM127.959 21.5H118.393V6.69529H120.774V19.4294H127.959V21.5ZM140.43 21.5H130.242V6.69529H140.43V8.72447H132.624V19.4708H140.43V21.5ZM140.036 14.9984H132.417V12.9692H140.036V14.9984ZM144.515 21.5H141.699L147.393 13.3833L147.413 14.2529L142.196 6.69529H145.012L148.946 12.6586H148.387L152.321 6.69529H155.095L149.919 14.2529V13.3833L155.613 21.5H152.776L148.366 14.9776H148.946L144.515 21.5Z" fill="white"/>
<path d="M72.6371 33.6197C72.2679 33.6197 71.9386 33.5349 71.6492 33.3653C71.3598 33.1957 71.1328 32.9637 70.9682 32.6693C70.8085 32.3749 70.7287 32.0382 70.7287 31.659C70.7287 31.2798 70.8085 30.943 70.9682 30.6486C71.1328 30.3543 71.3598 30.1223 71.6492 29.9526C71.9386 29.783 72.2679 29.6982 72.6371 29.6982C73.0113 29.6982 73.3406 29.783 73.6249 29.9526C73.9093 30.1223 74.1313 30.3543 74.291 30.6486C74.4507 30.943 74.5305 31.2798 74.5305 31.659C74.5305 32.0382 74.4507 32.3749 74.291 32.6693C74.1313 32.9637 73.9093 33.1957 73.6249 33.3653C73.3406 33.5349 73.0113 33.6197 72.6371 33.6197ZM69.3741 33.5V29.8179H69.9279V33.5H69.3741ZM69.6435 31.8012V31.3297H71.1777V31.8012H69.6435ZM72.6371 33.1333C72.9015 33.1333 73.131 33.0709 73.3256 32.9462C73.5252 32.8215 73.6773 32.6493 73.7821 32.4298C73.8919 32.2053 73.9467 31.9483 73.9467 31.659C73.9467 31.3696 73.8919 31.1151 73.7821 30.8956C73.6773 30.6711 73.5252 30.4965 73.3256 30.3717C73.131 30.247 72.9015 30.1846 72.6371 30.1846C72.3726 30.1846 72.1406 30.247 71.9411 30.3717C71.7415 30.4965 71.5868 30.6711 71.4771 30.8956C71.3673 31.1151 71.3124 31.3696 71.3124 31.659C71.3124 31.9483 71.3673 32.2053 71.4771 32.4298C71.5868 32.6493 71.7415 32.8215 71.9411 32.9462C72.1406 33.0709 72.3726 33.1333 72.6371 33.1333ZM76.0378 34.9519H75.484V29.8179H76.0303V30.933H75.8956C75.9405 30.6886 76.0378 30.474 76.1875 30.2894C76.3421 30.1048 76.5317 29.9601 76.7562 29.8554C76.9857 29.7506 77.2327 29.6982 77.4971 29.6982C77.8564 29.6982 78.1757 29.7855 78.4551 29.9601C78.7345 30.1298 78.9515 30.3618 79.1062 30.6561C79.2658 30.9505 79.3457 31.2848 79.3457 31.659C79.3457 32.0382 79.2633 32.3749 79.0987 32.6693C78.939 32.9637 78.7145 33.1957 78.4251 33.3653C78.1408 33.5349 77.814 33.6197 77.4448 33.6197C77.1105 33.6197 76.8161 33.5524 76.5617 33.4177C76.3122 33.278 76.1226 33.0909 75.9929 32.8564C75.8682 32.6169 75.8232 32.35 75.8582 32.0556L75.9629 31.9059C75.9829 32.1404 76.0577 32.3525 76.1875 32.5421C76.3172 32.7267 76.4868 32.8714 76.6964 32.9761C76.9059 33.0809 77.1354 33.1333 77.3849 33.1333C77.6593 33.1333 77.8988 33.0709 78.1033 32.9462C78.3079 32.8165 78.4675 32.6418 78.5823 32.4223C78.702 32.1978 78.7619 31.9434 78.7619 31.659C78.7619 31.3746 78.7045 31.1226 78.5898 30.9031C78.48 30.6786 78.3254 30.504 78.1258 30.3792C77.9262 30.2495 77.6942 30.1846 77.4298 30.1846C77.1604 30.1846 76.9209 30.252 76.7113 30.3867C76.5018 30.5214 76.3371 30.7085 76.2174 30.948C76.0977 31.1825 76.0378 31.4569 76.0378 31.7712V34.9519ZM80.293 33.5V29.8179H80.8468V32.7591L80.7869 32.7366L83.1817 29.8179H83.6607V33.5H83.1069V30.5588L83.1668 30.5813L80.7719 33.5H80.293ZM84.5614 33.3503V33.0285H84.7111C84.8109 33.0285 84.8882 33.0061 84.9431 32.9612C85.0029 32.9113 85.0478 32.8314 85.0778 32.7217C85.1127 32.6119 85.1401 32.4622 85.1601 32.2726L85.452 29.8179H87.9965V33.2755H87.4427V29.9302L87.8318 30.2894H85.5343L85.9833 29.9302L85.684 32.3175C85.654 32.572 85.6066 32.7741 85.5418 32.9237C85.4769 33.0734 85.3846 33.1832 85.2649 33.253C85.1501 33.3179 84.9905 33.3503 84.7859 33.3503H84.5614ZM84.4117 34.4579V33.0285H88.5204V34.4579H87.9965V33.1034L88.3856 33.5H84.7185L84.9356 33.1034V34.4579H84.4117ZM89.487 33.5V29.8179H90.0408V32.7591L89.9809 32.7366L92.3758 29.8179H92.8547V33.5H92.3009V30.5588L92.3608 30.5813L89.966 33.5H89.487ZM95.2672 32.2502C94.7932 32.2502 94.4315 32.1305 94.182 31.891C93.9326 31.6465 93.8078 31.2948 93.8078 30.8357V29.8179H94.3616V30.7759C94.3616 31.1551 94.4465 31.417 94.6161 31.5617C94.7907 31.7014 95.0352 31.7712 95.3495 31.7712C95.7287 31.7712 96.1179 31.634 96.517 31.3596L96.7116 31.7263C96.5719 31.8411 96.4222 31.9384 96.2625 32.0182C96.1079 32.093 95.9457 32.1504 95.7761 32.1903C95.6114 32.2302 95.4418 32.2502 95.2672 32.2502ZM96.4796 33.5V29.8179H97.0334V33.5H96.4796ZM101.266 32.4523L101.656 32.819C101.461 33.0684 101.226 33.2655 100.952 33.4102C100.678 33.5499 100.363 33.6197 100.009 33.6197C99.6199 33.6197 99.2707 33.5349 98.9614 33.3653C98.657 33.1957 98.4175 32.9637 98.2429 32.6693C98.0683 32.3749 97.981 32.0382 97.981 31.659C97.981 31.2798 98.0633 30.943 98.2279 30.6486C98.3976 30.3543 98.6296 30.1223 98.9239 29.9526C99.2183 29.783 99.5526 29.6982 99.9268 29.6982C100.286 29.6982 100.603 29.783 100.877 29.9526C101.157 30.1173 101.376 30.3443 101.536 30.6337C101.695 30.9231 101.775 31.2573 101.775 31.6365V31.6814H101.207V31.6365C101.207 31.3471 101.149 31.0952 101.034 30.8806C100.925 30.6611 100.772 30.4915 100.578 30.3717C100.388 30.247 100.171 30.1846 99.9268 30.1846C99.6574 30.1846 99.4204 30.247 99.2158 30.3717C99.0112 30.4965 98.8516 30.6686 98.7368 30.8881C98.6221 31.1077 98.5647 31.3621 98.5647 31.6515C98.5647 31.9409 98.6271 32.1978 98.7518 32.4223C98.8765 32.6468 99.0462 32.8215 99.2607 32.9462C99.4802 33.0709 99.7322 33.1333 100.017 33.1333C100.535 33.1333 100.952 32.9063 101.266 32.4523ZM101.775 31.8535H98.445V31.397H101.656L101.775 31.6365V31.8535ZM105.529 32.5421L105.926 32.9088C105.756 33.1283 105.542 33.3029 105.282 33.4326C105.028 33.5574 104.738 33.6197 104.414 33.6197C104.04 33.6197 103.706 33.5349 103.411 33.3653C103.122 33.1957 102.892 32.9637 102.723 32.6693C102.558 32.3749 102.476 32.0382 102.476 31.659C102.476 31.2798 102.558 30.943 102.723 30.6486C102.892 30.3543 103.124 30.1223 103.419 29.9526C103.713 29.783 104.047 29.6982 104.421 29.6982C104.746 29.6982 105.035 29.7631 105.29 29.8928C105.544 30.0175 105.756 30.1896 105.926 30.4092L105.529 30.7759C105.409 30.5963 105.26 30.4541 105.08 30.3493C104.9 30.2395 104.681 30.1846 104.421 30.1846C104.152 30.1846 103.915 30.247 103.711 30.3717C103.506 30.4965 103.346 30.6711 103.232 30.8956C103.117 31.1151 103.059 31.3696 103.059 31.659C103.059 31.9483 103.117 32.2053 103.232 32.4298C103.346 32.6493 103.506 32.8215 103.711 32.9462C103.915 33.0709 104.152 33.1333 104.421 33.1333C104.681 33.1333 104.9 33.0809 105.08 32.9761C105.26 32.8664 105.409 32.7217 105.529 32.5421ZM109.3 33.5L107.16 31.5916H107.235L109.166 29.8179H109.922L107.893 31.659L107.706 31.3895L110.109 33.5H109.3ZM106.801 33.5V29.8179H107.355V33.5H106.801ZM113.713 33.5H113.182V32.7815L113.174 32.572V31.195C113.174 30.8856 113.074 30.6387 112.875 30.4541C112.675 30.2695 112.406 30.1772 112.066 30.1772C111.822 30.1772 111.6 30.2295 111.4 30.3343C111.206 30.4391 111.034 30.5813 110.884 30.7609L110.495 30.3867C110.699 30.1672 110.929 29.9975 111.183 29.8778C111.443 29.7581 111.737 29.6982 112.066 29.6982C112.396 29.6982 112.683 29.7606 112.927 29.8853C113.177 30.005 113.369 30.1747 113.503 30.3942C113.643 30.6137 113.713 30.8732 113.713 31.1725V33.5ZM111.775 33.6197C111.495 33.6197 111.248 33.5698 111.034 33.4701C110.824 33.3653 110.659 33.2256 110.54 33.051C110.425 32.8763 110.368 32.6768 110.368 32.4523C110.368 32.1928 110.44 31.9733 110.585 31.7937C110.729 31.6091 110.926 31.4694 111.176 31.3746C111.43 31.2798 111.717 31.2324 112.036 31.2324H113.249V31.6814H112.111C111.777 31.6814 111.498 31.7438 111.273 31.8685C111.054 31.9883 110.944 32.1778 110.944 32.4373C110.944 32.6568 111.026 32.8314 111.191 32.9612C111.355 33.0909 111.572 33.1557 111.842 33.1557C112.101 33.1557 112.336 33.1058 112.545 33.0061C112.755 32.9013 112.922 32.7566 113.047 32.572C113.177 32.3874 113.249 32.1754 113.264 31.9359L113.488 32.0631C113.488 32.3625 113.414 32.6294 113.264 32.8639C113.119 33.0984 112.917 33.283 112.658 33.4177C112.398 33.5524 112.104 33.6197 111.775 33.6197ZM117.184 33.5V29.9077L117.528 30.2894H116.076C115.867 30.2894 115.682 30.3393 115.523 30.4391C115.368 30.5339 115.291 30.6985 115.291 30.933C115.291 31.1326 115.358 31.2898 115.493 31.4045C115.632 31.5193 115.827 31.5766 116.076 31.5766H117.491V32.0481H116.076C115.667 32.0481 115.338 31.9458 115.088 31.7413C114.839 31.5367 114.714 31.2673 114.714 30.933C114.714 30.7235 114.774 30.5364 114.894 30.3717C115.014 30.2021 115.176 30.0674 115.38 29.9676C115.59 29.8678 115.822 29.8179 116.076 29.8179H117.738V33.5H117.184ZM114.557 33.5L115.904 31.7787H116.533L115.231 33.5H114.557ZM122.894 33.5L120.754 31.5916H120.829L122.759 29.8179H123.515L121.487 31.659L121.3 31.3895L123.702 33.5H122.894ZM120.395 33.5V29.8179H120.948V33.5H120.395ZM125.806 33.6197C125.432 33.6197 125.098 33.5349 124.803 33.3653C124.509 33.1957 124.277 32.9637 124.107 32.6693C123.943 32.3749 123.86 32.0382 123.86 31.659C123.86 31.2798 123.943 30.943 124.107 30.6486C124.277 30.3543 124.509 30.1223 124.803 29.9526C125.098 29.783 125.432 29.6982 125.806 29.6982C126.185 29.6982 126.52 29.783 126.809 29.9526C127.103 30.1223 127.333 30.3543 127.497 30.6486C127.667 30.943 127.752 31.2798 127.752 31.659C127.752 32.0382 127.667 32.3749 127.497 32.6693C127.333 32.9637 127.103 33.1957 126.809 33.3653C126.52 33.5349 126.185 33.6197 125.806 33.6197ZM125.806 33.1333C126.075 33.1333 126.312 33.0709 126.517 32.9462C126.722 32.8215 126.881 32.6493 126.996 32.4298C127.111 32.2053 127.168 31.9483 127.168 31.659C127.168 31.3696 127.111 31.1151 126.996 30.8956C126.881 30.6711 126.722 30.4965 126.517 30.3717C126.312 30.247 126.075 30.1846 125.806 30.1846C125.537 30.1846 125.3 30.247 125.095 30.3717C124.891 30.4965 124.731 30.6711 124.616 30.8956C124.501 31.1151 124.444 31.3696 124.444 31.659C124.444 31.9483 124.501 32.2053 124.616 32.4298C124.731 32.6493 124.891 32.8215 125.095 32.9462C125.3 33.0709 125.537 33.1333 125.806 33.1333ZM128.704 33.5V29.8179H129.348L130.875 32.6618H130.755L132.282 29.8179H132.955V33.5H132.409V30.005H132.723L131.032 33.1632H130.56L128.884 30.005H129.236V33.5H128.704ZM134.149 33.5V29.8179H137.405V33.5H136.851V29.9302L137.24 30.2894H134.239L134.703 29.9302V33.5H134.149ZM141.646 33.5H141.114V32.7815L141.107 32.572V31.195C141.107 30.8856 141.007 30.6387 140.808 30.4541C140.608 30.2695 140.339 30.1772 139.999 30.1772C139.755 30.1772 139.533 30.2295 139.333 30.3343C139.139 30.4391 138.967 30.5813 138.817 30.7609L138.428 30.3867C138.632 30.1672 138.862 29.9975 139.116 29.8778C139.376 29.7581 139.67 29.6982 139.999 29.6982C140.329 29.6982 140.616 29.7606 140.86 29.8853C141.109 30.005 141.302 30.1747 141.436 30.3942C141.576 30.6137 141.646 30.8732 141.646 31.1725V33.5ZM139.708 33.6197C139.428 33.6197 139.181 33.5698 138.967 33.4701C138.757 33.3653 138.592 33.2256 138.473 33.051C138.358 32.8763 138.301 32.6768 138.301 32.4523C138.301 32.1928 138.373 31.9733 138.518 31.7937C138.662 31.6091 138.859 31.4694 139.109 31.3746C139.363 31.2798 139.65 31.2324 139.969 31.2324H141.182V31.6814H140.044C139.71 31.6814 139.431 31.7438 139.206 31.8685C138.987 31.9883 138.877 32.1778 138.877 32.4373C138.877 32.6568 138.959 32.8314 139.124 32.9612C139.288 33.0909 139.505 33.1557 139.775 33.1557C140.034 33.1557 140.269 33.1058 140.478 33.0061C140.688 32.9013 140.855 32.7566 140.98 32.572C141.109 32.3874 141.182 32.1754 141.197 31.9359L141.421 32.0631C141.421 32.3625 141.346 32.6294 141.197 32.8639C141.052 33.0984 140.85 33.283 140.591 33.4177C140.331 33.5524 140.037 33.6197 139.708 33.6197ZM145.558 33.5V29.8179H146.112V33.5H145.558ZM142.715 33.5V29.8179H143.268V33.5H142.715ZM142.984 31.8012V31.3297H145.865V31.8012H142.984ZM147.312 33.5V29.8179H147.865V32.7591L147.806 32.7366L150.2 29.8179H150.679V33.5H150.126V30.5588L150.185 30.5813L147.791 33.5H147.312ZM154.282 33.5V29.9077L154.626 30.2894H153.174C152.965 30.2894 152.78 30.3393 152.62 30.4391C152.466 30.5339 152.388 30.6985 152.388 30.933C152.388 31.1326 152.456 31.2898 152.59 31.4045C152.73 31.5193 152.925 31.5766 153.174 31.5766H154.589V32.0481H153.174C152.765 32.0481 152.436 31.9458 152.186 31.7413C151.937 31.5367 151.812 31.2673 151.812 30.933C151.812 30.7235 151.872 30.5364 151.992 30.3717C152.111 30.2021 152.274 30.0674 152.478 29.9676C152.688 29.8678 152.92 29.8179 153.174 29.8179H154.836V33.5H154.282ZM151.655 33.5L153.002 31.7787H153.631L152.328 33.5H151.655Z" fill="white"/>
</svg>
