<svg width="16" height="20" viewBox="0 0 16 20" fill="none" xmlns="http://www.w3.org/2000/svg">
<path d="M14.2024 5.61233L14.3104 5.82835L14.2024 5.61234L8.8007 8.31319C8.80069 8.3132 8.80068 8.3132 8.80068 8.3132C8.33301 8.54698 8.16944 8.62217 7.99998 8.62217C7.83053 8.62217 7.66695 8.54698 7.19929 8.3132C7.19929 8.3132 7.19928 8.3132 7.19927 8.31319L1.79754 5.61234C1.39368 5.4104 1.11583 5.27076 0.935608 5.14498C0.753929 5.01818 0.741506 4.95311 0.741506 4.91962C0.741506 4.88612 0.753929 4.82105 0.935608 4.69425C1.11583 4.56847 1.39368 4.42883 1.79754 4.2269C1.79754 4.2269 1.79754 4.2269 1.79754 4.2269L7.19929 1.52604C7.66691 1.29223 7.83052 1.21709 7.99998 1.21709C8.16945 1.21709 8.33306 1.29223 8.80068 1.52604L14.2024 4.2269L14.3104 4.01089L14.2024 4.2269C14.6063 4.42883 14.8841 4.56847 15.0644 4.69426C15.2461 4.82106 15.2585 4.88613 15.2585 4.91962C15.2585 4.9531 15.2461 5.01817 15.0644 5.14498C14.8841 5.27076 14.6063 5.4104 14.2024 5.61233Z" fill="white" fill-opacity="0.59" stroke="white" stroke-width="0.483013"/>
<path d="M6.07448 10.3235L6.07446 10.3235L5.00191 9.78716L5.0019 9.78716L4.99123 9.78182C4.21423 9.39331 3.52892 9.05065 2.93875 8.7367L1.79754 9.30731L1.79753 9.30732C1.39368 9.50921 1.11582 9.64884 0.935612 9.77463C0.753934 9.90143 0.741506 9.96651 0.741506 10C0.741506 10.0335 0.753917 10.0985 0.935603 10.2253C1.11583 10.3511 1.39368 10.4907 1.79754 10.6927L6.07448 10.3235ZM6.07448 10.3235C6.0948 10.3337 6.11493 10.3437 6.13486 10.3537C6.96836 10.7706 7.46277 11.0178 7.99997 11.0178C8.53717 11.0178 9.03159 10.7706 9.86509 10.3537C9.88502 10.3437 9.90515 10.3337 9.92547 10.3235L9.92549 10.3235L10.9981 9.78716L10.9981 9.78716L11.0062 9.78308C11.7843 9.39405 12.4704 9.05098 13.0612 8.7367L14.2025 9.30731L14.2025 9.30732C14.6063 9.50921 14.8842 9.64884 15.0644 9.77463C15.2461 9.90143 15.2585 9.96651 15.2585 10C15.2585 10.0335 15.2461 10.0985 15.0644 10.2253C14.8842 10.3511 14.6063 10.4907 14.2025 10.6927C14.2025 10.6927 14.2025 10.6927 14.2025 10.6927L8.80069 13.3936L6.07448 10.3235ZM7.19926 13.3936L1.79755 10.6927L8.80067 13.3936C8.33308 13.6273 8.16945 13.7025 7.99997 13.7025C7.8305 13.7025 7.66687 13.6273 7.19928 13.3936C7.19928 13.3936 7.19927 13.3936 7.19926 13.3936Z" fill="white" fill-opacity="0.59" stroke="white" stroke-width="0.483013"/>
<path d="M5.00193 14.8675L5.00195 14.8676L6.07457 15.4038C6.09513 15.4141 6.11548 15.4242 6.13564 15.4343C6.9686 15.851 7.46291 16.0982 7.99997 16.0982C8.53714 16.0982 9.03146 15.851 9.86444 15.4343C9.88458 15.4242 9.90493 15.4141 9.92547 15.4038C9.92547 15.4038 9.92548 15.4038 9.92548 15.4038L10.998 14.8675L10.9981 14.8675C11.7797 14.4767 12.4688 14.1322 13.0617 13.8168L14.2025 14.3871C14.2025 14.3871 14.2025 14.3871 14.2025 14.3871C14.6063 14.589 14.8842 14.7287 15.0644 14.8544C15.2461 14.9812 15.2585 15.0463 15.2585 15.0798C15.2585 15.1133 15.246 15.1784 15.0644 15.3052C14.8842 15.431 14.6063 15.5706 14.2025 15.7726C14.2025 15.7726 14.2025 15.7726 14.2025 15.7726L8.80067 18.4734L8.80065 18.4734C8.33307 18.7072 8.16944 18.7823 7.99997 18.7823C7.83051 18.7823 7.66688 18.7072 7.1993 18.4734L7.19928 18.4734L1.79755 15.7726C1.79755 15.7726 1.79754 15.7726 1.79754 15.7726C1.39368 15.5706 1.11583 15.431 0.935612 15.3052C0.753951 15.1784 0.741506 15.1133 0.741506 15.0798C0.741506 15.0463 0.753917 14.9812 0.935603 14.8544C1.11583 14.7287 1.39368 14.589 1.79753 14.3871C1.79754 14.3871 1.79754 14.3871 1.79755 14.3871L2.93827 13.8168C3.53124 14.1322 4.22028 14.4767 5.00193 14.8675Z" fill="white" fill-opacity="0.59" stroke="white" stroke-width="0.483013"/>
</svg>
