<svg width="16" height="20" viewBox="0 0 16 20" fill="none" xmlns="http://www.w3.org/2000/svg">
<path d="M8.0127 1.07417L8.00403 1.07907L7.99972 1.0765C7.99792 1.07543 7.99646 1.07387 7.99567 1.07251C7.99512 1.07158 7.99502 1.07108 7.99502 1.07022C7.99502 1.06889 7.99524 1.06838 7.99533 1.06817C7.99549 1.06779 7.99585 1.06715 7.99659 1.06642C7.99791 1.06511 8.00004 1.06377 8.00422 1.06377C8.0084 1.06377 8.01054 1.06511 8.01186 1.06642C8.0126 1.06715 8.01296 1.06779 8.01312 1.06817C8.01321 1.06838 8.01343 1.06889 8.01343 1.07022C8.01343 1.07245 8.01297 1.07365 8.0127 1.07417ZM9.11405 2.6226C8.94043 2.60437 8.76134 2.62802 8.57195 2.70532V1.52532H8.75086L8.5976 1.43375C8.82154 1.30577 8.97982 1.28528 9.09974 1.29818C9.25168 1.31452 9.37967 1.38523 9.55819 1.48385L9.57374 1.49244C9.74625 1.58768 9.97224 1.7103 10.255 1.70539C10.4271 1.70241 10.6034 1.65346 10.7909 1.55138V2.78693C10.5536 2.97885 10.3843 3.0264 10.2588 3.02767C10.1095 3.02918 9.97265 2.9682 9.78441 2.87023C9.7711 2.86331 9.75746 2.85614 9.74349 2.84881C9.57631 2.76104 9.36226 2.64867 9.11405 2.6226ZM7.9994 18.933C5.50412 18.9341 3.00889 18.9352 0.512991 18.9352V8.81006H1.36343H4.34476H4.58627V8.56855V6.13339L7.99353 3.96254L8.00071 3.95797L8.0149 3.96702L11.4146 6.13338V8.56855V8.81006H11.6561H15.4864V18.9308C12.9903 18.9308 10.4949 18.9319 7.99959 18.933H7.9994ZM8.25644 11.2965H8.01494V11.538V17.5531V17.7946H8.25644H10.1066H10.3481V17.5531V11.538V11.2965H10.1066H8.25644ZM7.74294 17.7946H7.98445V17.5531V11.538V11.2965H7.74294H5.89282H5.65132V11.538V17.5531V17.7946H5.89282H7.74294ZM1.9313 11.2965H1.6898V11.538V12.3222V12.5637H1.9313H3.9687H4.21021V12.3222V11.538V11.2965H3.9687H1.9313ZM12.0292 11.2965H11.7877V11.538V12.3222V12.5637H12.0292H14.0666H14.3081V12.3222V11.538V11.2965H14.0666H12.0292ZM1.9313 13.0277H1.6898V13.2692V14.0534V14.2949H1.9313H3.9687H4.21021V14.0534V13.2692V13.0277H3.9687H1.9313ZM12.0292 13.0277H11.7877V13.2692V14.0534V14.2949H12.0292H14.0666H14.3081V14.0534V13.2692V13.0277H14.0666H12.0292ZM1.9313 14.7589H1.6898V15.0004V15.7846V16.0261H1.9313H3.9687H4.21021V15.7846V15.0004V14.7589H3.9687H1.9313ZM12.0292 14.7589H11.7877V15.0004V15.7846V16.0261H12.0292H14.0666H14.3081V15.7846V15.0004V14.7589H14.0666H12.0292ZM1.9313 16.4901H1.6898V16.7316V17.5158V17.7573H1.9313H3.9687H4.21021V17.5158V16.7316V16.4901H3.9687H1.9313ZM12.0292 16.4901H11.7877V16.7316V17.5158V17.7573H12.0292H14.0666H14.3081V17.5158V16.7316V16.4901H14.0666H12.0292ZM10.114 7.18091C10.114 6.02184 9.1651 5.08723 7.99969 5.08723C6.83415 5.08723 5.88541 6.02346 5.88541 7.18091C5.88541 8.33998 6.83428 9.2746 7.99969 9.2746C9.1651 9.2746 10.114 8.33998 10.114 7.18091Z" fill="white" fill-opacity="0.59" stroke="white" stroke-width="0.483013"/>
</svg>
