<svg width="18" height="18" viewBox="0 0 18 18" fill="none" xmlns="http://www.w3.org/2000/svg">
<path d="M2.95397 10.3222L2.92771 10.3222C2.92757 10.3222 2.92744 10.3222 2.9273 10.3222C2.34675 10.3208 1.79129 10.0941 1.38207 9.69312C0.972992 9.29228 0.74327 8.75002 0.741506 8.18509V2.87995C0.742917 2.31478 0.972493 1.77217 1.38162 1.37105C1.79091 0.969769 2.34661 0.742896 2.92744 0.741506H11.7169C12.2977 0.742896 12.8534 0.969769 13.2627 1.37105C13.6718 1.77214 13.9014 2.31471 13.9028 2.87984C13.9028 2.87997 13.9028 2.8801 13.9028 2.88023V8.18488C13.9028 8.18501 13.9028 8.18514 13.9028 8.18527C13.9014 8.7504 13.6718 9.29297 13.2627 9.69406C12.8534 10.0953 12.2978 10.3222 11.717 10.3236C11.7169 10.3236 11.7167 10.3236 11.7166 10.3236L7.12107 10.3236H7.03285L6.96541 10.3805L3.28092 13.4865L3.28091 13.4864L3.27864 13.4884C3.25381 13.5099 3.22244 13.5241 3.1884 13.5284C3.15435 13.5328 3.11989 13.5271 3.0896 13.5124C3.05935 13.4976 3.03505 13.4748 3.01916 13.4474L2.81034 13.5687L3.01916 13.4474C3.0033 13.4201 2.99632 13.3893 2.99864 13.3587L2.99873 13.3575L3.19488 10.5807L3.21314 10.3222H2.95397ZM7.70352 6.43591H6.57092C6.58007 6.30361 6.60523 6.17261 6.64602 6.04568C6.69883 5.91018 6.7765 5.785 6.87542 5.67636C7.12253 5.42769 7.38593 5.19505 7.66397 4.97992L7.66402 4.97998L7.66861 4.97625C7.90018 4.78783 8.0948 4.56067 8.09774 4.29692C8.1017 4.19885 8.08487 4.10112 8.04841 4.00997L7.82417 4.09966L8.04841 4.00997C8.01126 3.91709 7.95465 3.83333 7.88259 3.764L7.87393 3.75567L7.86449 3.74824C7.703 3.6212 7.49998 3.55828 7.29504 3.57046C7.17505 3.56848 7.05575 3.59015 6.94417 3.63435C6.82937 3.67982 6.72508 3.74821 6.63799 3.83548C6.49398 3.97605 6.40665 4.17835 6.35641 4.41241L5.19872 4.2677C5.26873 3.87781 5.45919 3.51566 5.74787 3.23187C6.06087 2.93508 6.57081 2.76283 7.3285 2.76283C7.90819 2.76283 8.34847 2.88104 8.67421 3.09635L8.67407 3.09656L8.68353 3.10221C8.88398 3.22194 9.04868 3.39036 9.16192 3.5905C9.27514 3.7906 9.3332 4.01576 9.33071 4.24396L9.33071 4.24689C9.33096 4.43917 9.27728 4.62808 9.17516 4.79303C8.9723 5.07632 8.72127 5.32369 8.4328 5.52425C8.20067 5.68462 7.99889 5.88397 7.83684 6.11331L7.83227 6.11978L7.82813 6.12653C7.76928 6.22261 7.72734 6.32721 7.70352 6.43591ZM15.8111 9.83461V4.68642C16.1837 4.81194 16.5154 5.03602 16.7681 5.3357C17.0837 5.71015 17.2567 6.17955 17.2585 6.66387C17.2585 6.66405 17.2585 6.66423 17.2585 6.66441V11.9659C17.2585 11.9661 17.2585 11.9663 17.2585 11.9665C17.2567 12.5186 17.0322 13.0487 16.6324 13.4406C16.2325 13.8327 15.6895 14.0546 15.1219 14.0563C15.1217 14.0563 15.1216 14.0563 15.1215 14.0563L15.0347 14.0563H14.7755L14.7938 14.3149L14.9941 17.1418C14.9942 17.1419 14.9942 17.142 14.9942 17.1422C14.9954 17.1625 14.9907 17.1831 14.9799 17.2014L15.1885 17.3232L14.9799 17.2014C14.9691 17.2199 14.9525 17.2357 14.9316 17.2459C14.9107 17.2563 14.8868 17.2604 14.8629 17.2576C14.8397 17.2549 14.8183 17.2457 14.8012 17.2319L11.1006 14.024L11.0325 13.965H10.9424H6.65658L8.5714 12.0546L13.5516 12.0546L13.5523 12.0546C14.1493 12.0529 14.7224 11.8197 15.146 11.4044C15.5697 10.989 15.8094 10.4249 15.8111 9.8353V9.83461ZM11.7166 1.06094H11.7157L2.92716 1.06093L2.92633 1.06094C2.43789 1.06261 1.96901 1.25354 1.62221 1.59356C1.27525 1.93373 1.07868 2.39563 1.07695 2.8788V2.87965L1.07695 8.18524L1.31846 8.18545H1.07695V8.18531C1.07654 8.66983 1.27216 9.13377 1.61934 9.47565C1.96638 9.81739 2.43649 10.0094 2.92633 10.0111H2.92716H3.41519C3.45827 10.0157 3.49715 10.0359 3.52441 10.0665L3.70474 9.90589L3.52441 10.0665C3.55278 10.0984 3.56648 10.1389 3.56394 10.1794C3.56393 10.1795 3.56392 10.1797 3.56391 10.1798L3.40453 12.4241L3.36404 12.9942L3.80109 12.6258L6.84068 10.0635L6.8476 10.0577L6.85406 10.0514C6.88376 10.0223 6.9248 10.0048 6.96873 10.0042L11.7157 10.0042L11.7166 10.0042C12.205 10.0025 12.6739 9.81157 13.0207 9.47155C13.3677 9.13138 13.5642 8.66947 13.5659 8.18631V8.18545L13.5659 2.87965L13.5659 2.87879C13.5642 2.39563 13.3677 1.93373 13.0207 1.59356C12.6739 1.25354 12.205 1.06261 11.7166 1.06094ZM6.51307 7.42668H7.73753V8.14456H6.51307V7.42668Z" fill="white" fill-opacity="0.59" stroke="white" stroke-width="0.483013"/>
</svg>
