<svg width="14" height="16" viewBox="0 0 14 16" fill="none" xmlns="http://www.w3.org/2000/svg">
<path d="M8.08707 0.241506H1.62886C1.38461 0.241506 1.1628 0.340482 1.00164 0.500865C0.840468 0.661256 0.741506 0.881465 0.741506 1.1231V14.8769C0.741506 15.1185 0.840468 15.3387 1.00164 15.4991C1.1628 15.6595 1.38461 15.7585 1.62886 15.7585H12.3714C12.6127 15.7585 12.8338 15.6602 12.996 15.4999C12.9962 15.4998 12.9963 15.4997 12.9964 15.4995L12.9981 15.4978L12.9984 15.4976M8.08707 0.241506L13.5 14.8769C13.5 15.1841 13.3731 15.4647 13.1687 15.6688L12.9984 15.4976M8.08707 0.241506V4.58429C8.08707 4.89095 8.33666 5.13766 8.64196 5.13766H13.2585M8.08707 0.241506L13.2585 5.13766M12.9984 15.4976C13.1599 15.3362 13.2585 15.1162 13.2585 14.8769V5.13766M12.9984 15.4976L13.2585 5.13766M9.19716 4.0306V0.630477L12.7233 4.0306H9.19716ZM2.81202 12.8044C2.81202 13.1113 3.06177 13.3578 3.36722 13.3578H10.6328C10.9382 13.3578 11.188 13.1113 11.188 12.8044C11.188 12.4979 10.9385 12.2507 10.6328 12.2507H3.36722C3.06145 12.2507 2.81202 12.4979 2.81202 12.8044ZM2.81202 10.4185C2.81202 10.7254 3.06177 10.9719 3.36722 10.9719H10.5197C10.8252 10.9719 11.0749 10.7254 11.0749 10.4185C11.0749 10.1116 10.8253 9.86486 10.5197 9.86486H3.36722C3.06161 9.86486 2.81202 10.1116 2.81202 10.4185ZM2.81202 8.03234C2.81202 8.33932 3.06161 8.58603 3.36722 8.58603H9.15473C9.45987 8.58603 9.70994 8.33948 9.70994 8.03234C9.70994 7.72537 9.45972 7.47897 9.15473 7.47897H3.36722C3.06177 7.47897 2.81202 7.72552 2.81202 8.03234ZM2.81202 5.64645C2.81202 5.95327 3.06177 6.19983 3.36722 6.19983H6.59838C6.90384 6.19983 7.15358 5.95327 7.15358 5.64645C7.15358 5.33948 6.90399 5.09276 6.59838 5.09276H3.36722C3.06161 5.09276 2.81202 5.33948 2.81202 5.64645ZM2.81202 3.26025C2.81202 3.56723 3.06161 3.81394 3.36722 3.81394H5.10715C5.41276 3.81394 5.66235 3.56723 5.66235 3.26025C5.66235 2.95343 5.4126 2.70687 5.10715 2.70687H3.36722C3.06177 2.70687 2.81202 2.95343 2.81202 3.26025Z" fill="white" fill-opacity="0.59" stroke="white" stroke-width="0.483013"/>
</svg>
