<svg width="31" height="31" viewBox="0 0 31 31" fill="none" xmlns="http://www.w3.org/2000/svg">
<path d="M16.8867 15.8613H15.1133C15.084 15.8613 15.0605 15.8733 15.041 15.8912C15.0215 15.9111 15.0117 15.9369 15.0117 15.9648V19.7722C15.0117 19.8021 15.0234 19.8259 15.041 19.8458C15.0605 19.8657 15.0859 19.8757 15.1133 19.8757H16.8848C16.9141 19.8757 16.9375 19.8637 16.957 19.8458C16.9766 19.8259 16.9863 19.8001 16.9863 19.7722V15.9648C16.9863 15.935 16.9746 15.9111 16.957 15.8912C16.9395 15.8693 16.9141 15.8613 16.8867 15.8613ZM5.36328 7.77899H11.5137V5.98269C11.5137 5.71017 11.623 5.46549 11.7969 5.28844C11.9727 5.1114 12.2148 5 12.4785 5H19.5215C19.7891 5 20.0273 5.1114 20.2031 5.28844C20.377 5.46549 20.4863 5.71414 20.4863 5.98269V7.77899H26.6367C27.0137 7.77899 27.3535 7.93614 27.5977 8.18878C27.8457 8.44142 28 8.78755 28 9.1675V12.5214C26.459 13.5976 24.8691 14.5146 23.2305 15.2626C21.582 16.0145 19.8828 16.5974 18.125 16.9992V15.6584C18.125 15.3521 18.002 15.0696 17.8047 14.8667C17.6074 14.6658 17.3301 14.5405 17.0273 14.5405H14.9707C14.6699 14.5405 14.3926 14.6658 14.1934 14.8667C13.9961 15.0676 13.873 15.3501 13.873 15.6584V16.9694C12.1621 16.5695 10.5039 15.9966 8.89648 15.2626C7.21289 14.4947 5.58203 13.5459 4 12.4319V9.1675C4 8.78357 4.1543 8.43744 4.40234 8.18878C4.64844 7.93614 4.99023 7.77899 5.36328 7.77899ZM28 14.5106V23.6135C28 23.9974 27.8457 24.3435 27.5977 24.5922C27.3496 24.8448 27.0098 25.002 26.6367 25.002H5.36328C4.98633 25.002 4.64648 24.8448 4.40234 24.5922C4.1543 24.3396 4 23.9934 4 23.6135V14.4271C5.3457 15.3063 6.73047 16.0742 8.1543 16.7247C9.99219 17.5642 11.8984 18.2067 13.875 18.6364V20.0786C13.875 20.3849 13.998 20.6674 14.1953 20.8703C14.3926 21.0712 14.6719 21.1965 14.9727 21.1965H17.0293C17.3301 21.1965 17.6074 21.0712 17.8066 20.8703C18.0039 20.6694 18.127 20.3869 18.127 20.0786V18.5667L18.1484 18.6582C20.1621 18.2266 22.1035 17.5781 23.9746 16.7227C25.3535 16.0941 26.6953 15.3541 28 14.5106ZM18.7871 6.33877H13.2168C13.1836 6.33877 13.1562 6.35071 13.1309 6.37657C13.1113 6.39646 13.0938 6.43028 13.0938 6.46409V7.7412H18.9043V6.46409C18.9043 6.43028 18.8926 6.40243 18.8672 6.37657C18.8477 6.35667 18.8145 6.33877 18.7813 6.33877H18.7871Z" fill="white"/>
</svg>
