<svg width="31" height="31" viewBox="0 0 31 31" fill="none" xmlns="http://www.w3.org/2000/svg">
<path d="M10.2588 16C10.2628 17.2006 10.4132 18.3963 10.7066 19.5605H15.3866V12.7139H10.6416C10.3919 13.7915 10.2635 14.8938 10.2588 16Z" fill="white"/>
<path d="M16.6143 12.7139V19.5605H21.2943C21.5998 18.3978 21.7623 17.2021 21.7781 16C21.7758 14.894 21.6498 13.7918 21.4026 12.7139H16.6143Z" fill="white"/>
<path d="M15.9999 4.44434C13.7144 4.44434 11.4803 5.12206 9.57997 6.3918C7.67967 7.66154 6.19857 9.46627 5.32396 11.5778C4.44934 13.6893 4.2205 16.0127 4.66638 18.2543C5.11225 20.4958 6.21281 22.5548 7.82889 24.1709C9.44496 25.787 11.504 26.8875 13.7455 27.3334C15.9871 27.7793 18.3105 27.5504 20.422 26.6758C22.5335 25.8012 24.3382 24.3201 25.608 22.4198C26.8777 20.5195 27.5555 18.2854 27.5555 15.9999C27.5555 12.9352 26.338 9.99597 24.1709 7.82888C22.0038 5.66179 19.0646 4.44434 15.9999 4.44434ZM24.8255 20.846H22.211C21.7167 22.3936 20.9858 23.8553 20.0443 25.1793C19.3496 25.4821 18.6227 25.705 17.8777 25.8438C19.212 24.3939 20.2389 22.6889 20.8966 20.8316H16.621V25.9954H15.4005V20.846H11.1032C11.76 22.7059 12.787 24.4135 14.1221 25.8654C13.3924 25.7282 12.6803 25.5102 11.9988 25.2154C11.054 23.8803 10.323 22.4062 9.83212 20.846H7.17434C6.94362 20.4251 6.74329 19.9883 6.5749 19.5388H9.46379C9.19309 18.3784 9.05259 17.1914 9.0449 15.9999C9.0453 14.8954 9.16149 13.794 9.39156 12.7138H6.43767C6.58956 12.2656 6.77298 11.8288 6.98656 11.4066H9.73823C10.2545 9.68698 11.0552 8.06603 12.1071 6.611C12.7741 6.33462 13.4691 6.13121 14.1799 6.00434C12.7432 7.54632 11.6589 9.38224 11.0021 11.3849H15.4005V5.88878H16.621V11.4066H21.0193C20.3638 9.40711 19.282 7.57379 17.8488 6.03322C18.5584 6.15094 19.2534 6.34465 19.9216 6.611C20.9673 8.05552 21.7654 9.66396 22.2832 11.3704H25.006C25.2196 11.7927 25.403 12.2295 25.5549 12.6777H22.6227C22.8577 13.7695 22.9763 14.8831 22.9766 15.9999C22.9729 17.1984 22.8348 18.3927 22.5649 19.5604H25.4538C25.2751 20.0033 25.0651 20.4329 24.8255 20.846Z" fill="white"/>
</svg>
