<svg width="31" height="31" viewBox="0 0 31 31" fill="none" xmlns="http://www.w3.org/2000/svg">
<g clip-path="url(#clip0_1727_557)">
<path fill-rule="evenodd" clip-rule="evenodd" d="M13.2622 0C17.4022 8.51191 4.62284 8.54004 5.00857 17.341C5.1486 18.7298 5.41544 19.9421 5.81174 20.9754C5.73248 21.446 5.69285 21.9269 5.69285 22.4179C5.69285 24.9065 6.7338 27.1598 8.41941 28.7891C10.105 30.4209 12.43 31.4286 15.0006 31.4286C17.5713 31.4286 19.8989 30.4209 21.5819 28.7891C23.2675 27.1573 24.3084 24.9065 24.3084 22.4179C24.3084 21.3181 24.105 20.2644 23.7325 19.2899C24.4855 18.0162 24.9478 16.5532 25.0006 14.9291C24.5594 11.2921 20.8104 10.2895 22.821 6.43252C20.2424 6.57575 19.6215 8.26637 19.6268 10.8829C19.9465 14.2462 13.3388 13.7449 16.8025 9.63216C19.78 6.09747 16.8527 1.96684 13.2622 0ZM16.0892 17.0085C16.2292 17.0443 16.3639 17.0878 16.496 17.1363C16.6915 17.208 16.8765 17.3 17.0535 17.4023C17.0588 17.4049 17.0667 17.4126 17.0746 17.4151C17.2464 17.5174 17.4049 17.6274 17.5502 17.7527C17.7034 17.8806 17.8487 18.0239 17.9782 18.1773C18.1076 18.3282 18.2239 18.4919 18.3269 18.6633C18.43 18.8372 18.5172 19.0162 18.5911 19.2029C18.6651 19.3948 18.7232 19.5917 18.7602 19.7912C18.7972 19.9933 18.8157 20.2004 18.8157 20.4127V21.0854C18.8157 21.3002 18.8183 21.51 18.8183 21.7171V21.7197C18.8183 21.9038 18.8316 22.0931 18.8553 22.2773C18.8791 22.4614 18.9108 22.6404 18.9584 22.8144C19.0033 22.9832 19.0641 23.1469 19.1407 23.3029C19.2199 23.464 19.3124 23.6226 19.426 23.776C19.537 23.9269 19.6744 24.0753 19.8408 24.2262C20.0099 24.3771 20.2107 24.5254 20.4353 24.6712C20.5647 24.7556 20.5991 24.927 20.5145 25.0498C20.4617 25.129 20.3692 25.17 20.2794 25.17H10.0786C9.92271 25.17 9.79589 25.0498 9.79589 24.8963C9.79589 24.7966 9.84873 24.7121 9.93328 24.6636C10.1631 24.5152 10.3586 24.3669 10.5224 24.2185C10.6862 24.0727 10.8236 23.9218 10.932 23.7684C10.9346 23.7658 10.9372 23.7581 10.9425 23.7556C11.0482 23.6047 11.1407 23.4512 11.2147 23.2952C11.2886 23.1366 11.352 22.9729 11.3996 22.8041C11.3996 22.8016 11.4022 22.799 11.4022 22.7939C11.4471 22.6302 11.4815 22.4563 11.5026 22.2747C11.5238 22.0931 11.537 21.9038 11.537 21.7095V20.4153C11.537 20.2055 11.5555 19.9984 11.5925 19.7938C11.6294 19.5866 11.6876 19.3897 11.7615 19.2029C11.8355 19.0137 11.9254 18.8321 12.0284 18.6607C12.1314 18.4868 12.2477 18.3282 12.3798 18.1722V18.1696C12.5119 18.0187 12.6545 17.8755 12.8131 17.7476C12.9663 17.6197 13.1354 17.5021 13.315 17.3998C13.4973 17.2924 13.6849 17.2054 13.8804 17.1363C14.0152 17.0878 14.1526 17.0443 14.2979 17.011C14.3481 16.8473 14.43 16.7143 14.5489 16.6095C14.7127 16.4688 14.9293 16.3997 15.1935 16.3997C15.4577 16.4023 15.6691 16.4714 15.8329 16.612C15.9518 16.7143 16.0363 16.8499 16.0839 17.0085H16.0892ZM16.7708 26.1802C16.7364 26.3593 16.673 26.523 16.5859 26.6713C16.496 26.8248 16.3719 26.9629 16.2265 27.0831C16.0786 27.2033 15.9174 27.2954 15.7404 27.3593C15.566 27.4207 15.3811 27.4514 15.1829 27.4514C14.9848 27.4514 14.7999 27.4207 14.6255 27.3593C14.4511 27.2979 14.2873 27.2084 14.1394 27.0831C13.9914 26.9629 13.8699 26.8222 13.78 26.6713C13.6902 26.5179 13.6268 26.3465 13.5925 26.1649C13.5766 26.0728 13.64 25.9884 13.7298 25.9705C13.7325 25.9705 13.7615 25.968 13.7615 25.968H16.6123C16.7074 25.968 16.784 26.0447 16.784 26.1342C16.784 26.1496 16.7814 26.1649 16.7787 26.1802H16.7708ZM15.0006 14.4227C19.5634 14.4227 23.2596 18.0034 23.2596 22.4179C23.2596 26.835 19.5608 30.4132 15.0006 30.4132C10.4405 30.4132 6.74173 26.8325 6.74173 22.4179C6.73909 18.0008 10.4379 14.4227 15.0006 14.4227Z" fill="white"/>
</g>
<defs>
<clipPath id="clip0_1727_557">
<rect width="31" height="31" fill="white"/>
</clipPath>
</defs>
</svg>
